<?xml version="1.0" encoding="UTF-8"?>
<svg id="primary" xmlns="http://www.w3.org/2000/svg" xmlns:xlink="http://www.w3.org/1999/xlink" viewBox="0 0 1750.01 380">
  <defs>
    <style>
      .cls-1 {
        fill: url(#stitch-primary-backleft);
      }

      .cls-1, .cls-2, .cls-3, .cls-4, .cls-5, .cls-6, .cls-7, .cls-8, .cls-9 {
        stroke-width: 0px;
      }

      .cls-1, .cls-3 {
        fill-rule: evenodd;
      }

      .cls-2 {
        fill: url(#linear-gradient);
      }

      .cls-3 {
        fill: url(#linear-gradient-7);
      }

      .cls-4 {
        fill: url(#linear-gradient-4);
      }

      .cls-5 {
        fill: url(#linear-gradient-2);
      }

      .cls-6 {
        fill: url(#linear-gradient-3);
      }

      .cls-7 {
        fill: url(#linear-gradient-5);
      }

      .cls-8 {
        fill: url(#linear-gradient-6);
      }

      .cls-9 {
        fill: #b4bac7;
      }
    </style>
    <linearGradient id="linear-gradient" x1="526.46" y1="84.56" x2="526.46" y2="315.6" gradientUnits="userSpaceOnUse">
      <stop offset="0" stop-color="#979fb1"/>
      <stop offset="1" stop-color="#c3c7d2"/>
    </linearGradient>
    <linearGradient id="linear-gradient-2" x1="692.37" y1="91.6" x2="692.37" y2="313.04" xlink:href="#linear-gradient"/>
    <linearGradient id="linear-gradient-3" x1="811.25" y1="64.4" x2="811.25" y2="313.04" xlink:href="#linear-gradient"/>
    <linearGradient id="linear-gradient-4" x1="929.49" y1="91.6" x2="929.49" y2="313.04" xlink:href="#linear-gradient"/>
    <linearGradient id="linear-gradient-5" x1="1069.01" y1="129.68" x2="1069.01" y2="314.32" xlink:href="#linear-gradient"/>
    <linearGradient id="linear-gradient-6" x1="1252.37" y1="73.68" x2="1252.37" y2="310.48" xlink:href="#linear-gradient"/>
    <linearGradient id="stitch-primary-backleft" x1="150.1" y1=".81" x2="150.1" y2="301.01" gradientUnits="userSpaceOnUse">
      <stop offset="0" stop-color="#00e3b2"/>
      <stop offset="1" stop-color="#979fb1"/>
    </linearGradient>
    <linearGradient id="linear-gradient-7" x1="229.04" y1="80.9" x2="229.04" y2="381.1" gradientUnits="userSpaceOnUse">
      <stop offset="0" stop-color="#808aa0" stop-opacity=".56"/>
      <stop offset=".08" stop-color="#919aad" stop-opacity=".65"/>
      <stop offset=".21" stop-color="#a7aebd" stop-opacity=".75"/>
      <stop offset=".34" stop-color="#babfcb" stop-opacity=".84"/>
      <stop offset=".47" stop-color="#c8ccd5" stop-opacity=".91"/>
      <stop offset=".62" stop-color="#d2d5dd" stop-opacity=".96"/>
      <stop offset=".78" stop-color="#d8dbe1" stop-opacity=".99"/>
      <stop offset="1" stop-color="#dadde3"/>
    </linearGradient>
  </defs>
  <g id="box">
    <path class="cls-9" d="m1658.01,150c39.7,0,72,32.3,72,72s-32.3,72-72,72h-185c-39.7,0-72-32.3-72-72s32.3-72,72-72h185m0-20h-185c-50.81,0-92,41.19-92,92h0c0,50.81,41.19,92,92,92h185c50.81,0,92-41.19,92-92h0c0-50.81-41.19-92-92-92h0Z"/>
  </g>
  <g>
    <path class="cls-9" d="m1444.98,249.37c-7.25,0-13.23-1.49-17.92-4.48-.96-.64-1.66-1.41-2.08-2.32-.43-.91-.64-1.79-.64-2.64,0-1.81.61-3.46,1.84-4.96,1.22-1.49,2.75-2.24,4.56-2.24.85,0,1.71.21,2.56.64,1.92.86,4.1,1.58,6.56,2.16,2.45.59,4.69.88,6.72.88,3.95,0,5.92-.9,5.92-2.72,0-1.06-.48-2-1.44-2.8s-3.2-1.36-6.72-1.68c-1.39-.11-3.18-.32-5.36-.64-2.19-.32-4.35-.93-6.48-1.84-2.13-.91-3.92-2.26-5.36-4.08-1.44-1.81-2.16-4.26-2.16-7.36,0-4.8,1.81-8.58,5.44-11.36,3.62-2.77,8.48-4.16,14.56-4.16,3.52,0,6.85.38,10,1.12,3.14.75,5.52,1.87,7.12,3.36,1.49,1.39,2.24,2.99,2.24,4.8,0,1.6-.59,3.04-1.76,4.32-1.17,1.28-2.67,1.92-4.48,1.92-.96,0-1.87-.21-2.72-.64-1.28-.85-2.91-1.49-4.88-1.92-1.97-.42-3.97-.64-6-.64-4.05,0-6.08.85-6.08,2.56,0,.75.4,1.42,1.2,2,.8.59,2.64,1.09,5.52,1.52,1.81.21,3.89.51,6.24.88,2.34.38,4.61,1.01,6.8,1.92,2.18.91,4.02,2.38,5.52,4.4,1.49,2.03,2.24,4.8,2.24,8.32,0,4.8-1.92,8.62-5.76,11.44-3.84,2.82-8.91,4.24-15.2,4.24Z"/>
    <path class="cls-9" d="m1494.74,249.37c-4.59,0-8.38-1.33-11.36-4-2.99-2.67-4.48-6.77-4.48-12.32v-17.28c0-1.06-.53-1.6-1.6-1.6h-2.4c-1.92,0-3.36-.58-4.32-1.76-.96-1.17-1.44-2.67-1.44-4.48,0-1.92.48-3.49,1.44-4.72.96-1.23,2.4-1.84,4.32-1.84h2.4c1.07,0,1.6-.53,1.6-1.6v-11.84c0-1.81.64-3.36,1.92-4.64,1.28-1.28,2.93-1.92,4.96-1.92s3.7.61,5.04,1.84c1.33,1.23,2,2.8,2,4.72v11.84c0,1.07.53,1.6,1.6,1.6h5.92c1.81,0,3.33.64,4.56,1.92,1.23,1.28,1.84,2.83,1.84,4.64s-.62,3.31-1.84,4.48c-1.23,1.17-2.8,1.76-4.72,1.76h-5.76c-1.07,0-1.6.54-1.6,1.6v15.04c0,1.92.34,3.25,1.04,4,.69.75,1.57,1.12,2.64,1.12.42,0,1.28-.13,2.56-.4,1.28-.26,2.08-.4,2.4-.4,1.71,0,3.14.64,4.32,1.92,1.17,1.28,1.76,2.83,1.76,4.64,0,1.39-.4,2.67-1.2,3.84-.8,1.17-2.05,2.03-3.76,2.56-1.39.42-2.72.75-4,.96-1.28.21-2.56.32-3.84.32Z"/>
    <path class="cls-9" d="m1547.06,206.65c0-2.02.67-3.68,2-4.96,1.33-1.28,3.01-1.92,5.04-1.92s3.71.67,5.04,2c1.33,1.33,2,2.96,2,4.88v22.56c0,4.38-1.12,8.08-3.36,11.12-2.24,3.04-5.12,5.31-8.64,6.8-3.52,1.49-7.25,2.24-11.2,2.24s-7.52-.75-11.04-2.24c-3.52-1.49-6.43-3.76-8.72-6.8-2.29-3.04-3.44-6.74-3.44-11.12v-22.56c0-2.02.67-3.68,2-4.96,1.33-1.28,3.01-1.92,5.04-1.92s3.71.67,5.04,2c1.33,1.33,2,2.96,2,4.88v21.92c0,2.24.85,4.11,2.56,5.6,1.71,1.49,3.89,2.24,6.56,2.24s4.85-.75,6.56-2.24c1.71-1.49,2.56-3.36,2.56-5.6v-21.92Z"/>
    <path class="cls-9" d="m1593.62,249.37c-7.15,0-12.88-2.26-17.2-6.8-4.32-4.53-6.48-10.58-6.48-18.16s2.1-13.57,6.32-18c4.21-4.43,9.84-6.64,16.88-6.64,4.58,0,8.69,1.66,12.32,4.96v-20.96c0-1.81.64-3.33,1.92-4.56,1.28-1.23,2.93-1.84,4.96-1.84,2.13,0,3.87.61,5.2,1.84,1.33,1.23,2,2.69,2,4.4v59.52c0,1.81-.67,3.31-2,4.48-1.33,1.17-3.07,1.76-5.2,1.76-3.42,0-5.6-1.49-6.56-4.48-3.31,2.99-7.36,4.48-12.16,4.48Zm1.12-12.96c3.2,0,5.79-1.14,7.76-3.44,1.97-2.29,2.96-5.15,2.96-8.56s-.99-6.34-2.96-8.48c-1.97-2.13-4.56-3.2-7.76-3.2s-5.95,1.07-7.92,3.2c-1.97,2.13-2.96,4.96-2.96,8.48s.99,6.27,2.96,8.56c1.97,2.29,4.61,3.44,7.92,3.44Z"/>
    <path class="cls-9" d="m1638.9,192.57c-2.24,0-4.16-.72-5.76-2.16s-2.4-3.28-2.4-5.52c0-2.02.8-3.79,2.4-5.28,1.6-1.49,3.52-2.24,5.76-2.24s3.97.75,5.52,2.24c1.54,1.5,2.32,3.26,2.32,5.28,0,2.24-.77,4.08-2.32,5.52-1.55,1.44-3.39,2.16-5.52,2.16Zm0,56.8c-2.03,0-3.73-.59-5.12-1.76-1.39-1.17-2.08-2.67-2.08-4.48v-36.32c0-1.71.67-3.17,2-4.4,1.33-1.23,3.07-1.84,5.2-1.84s3.81.62,5.04,1.84c1.23,1.23,1.84,2.75,1.84,4.56v36c0,1.81-.67,3.33-2,4.56-1.33,1.23-2.96,1.84-4.88,1.84Z"/>
    <path class="cls-9" d="m1680.82,249.37c-4.59,0-8.8-1.07-12.64-3.2-3.84-2.13-6.91-5.09-9.2-8.88-2.29-3.78-3.44-8.08-3.44-12.88s1.14-9.2,3.44-12.88c2.29-3.68,5.36-6.56,9.2-8.64s8.05-3.12,12.64-3.12,8.93,1.04,12.72,3.12c3.79,2.08,6.8,4.96,9.04,8.64,2.24,3.68,3.36,7.98,3.36,12.88s-1.12,9.1-3.36,12.88c-2.24,3.79-5.25,6.75-9.04,8.88-3.79,2.13-8.03,3.2-12.72,3.2Zm0-12.96c3.3,0,6-1.14,8.08-3.44,2.08-2.29,3.12-5.15,3.12-8.56s-1.04-6.34-3.12-8.48c-2.08-2.13-4.77-3.2-8.08-3.2s-5.9,1.07-8.08,3.2c-2.19,2.13-3.28,4.96-3.28,8.48s1.09,6.27,3.28,8.56c2.18,2.29,4.88,3.44,8.08,3.44Z"/>
  </g>
  <g id="logo-primary">
    <g id="text-stitch">
      <path class="cls-2" d="m520.54,315.6c-48.64,0-74.88-18.56-74.88-50.24v-21.76h1.6c13.76,14.08,42.56,22.4,67.84,22.4,28.16,0,37.12-6.72,37.12-21.44,0-13.44-12.16-17.92-45.76-24.64-48-9.6-66.56-27.2-66.56-60.8,0-39.36,35.84-74.56,91.84-74.56s75.2,24.64,75.2,47.36v23.36h-1.6c-14.72-14.72-41.28-21.12-64.32-21.12-30.08,0-40.32,8-40.32,20.48,0,9.92,4.16,15.36,45.12,23.68,45.44,9.28,67.2,27.84,67.2,62.08,0,45.76-33.6,75.2-92.48,75.2Z"/>
      <path class="cls-5" d="m658.13,103.44c8-6.08,18.88-11.84,31.68-11.84h6.4v42.88h51.52v21.44c0,15.04-16,26.56-29.76,26.56h-21.76v63.68c0,11.84,7.36,18.88,19.2,18.88,14.4,0,21.12-1.28,27.52-3.84h1.6v23.68c0,14.72-13.44,28.16-45.12,28.16s-62.4-14.4-62.4-62.72v-109.12c0-16,9.28-28.8,21.12-37.76Z"/>
      <path class="cls-6" d="m795.41,124.56c-17.6,0-32-13.44-32-30.08s14.4-30.08,32-30.08,31.68,13.44,31.68,30.08-14.08,30.08-31.68,30.08Zm28.8,188.48c-32.32,0-57.6-16-57.6-57.6v-115.52h15.04c34.56,0,45.76,9.92,45.76,41.92v64.64c0,15.68,7.36,20.48,24.32,20.48h7.36v17.92c0,21.12-16,28.16-34.88,28.16Z"/>
      <path class="cls-4" d="m895.25,103.44c8-6.08,18.88-11.84,31.68-11.84h6.4v42.88h51.52v21.44c0,15.04-16,26.56-29.76,26.56h-21.76v63.68c0,11.84,7.36,18.88,19.2,18.88,14.4,0,21.12-1.28,27.52-3.84h1.6v23.68c0,14.72-13.44,28.16-45.12,28.16s-62.4-14.4-62.4-62.72v-109.12c0-16,9.28-28.8,21.12-37.76Z"/>
      <path class="cls-7" d="m1141.33,192.08c-5.44-5.76-22.08-12.16-39.04-12.16-29.76,0-46.4,15.04-46.4,39.68,0,30.08,16.64,44.16,43.52,44.16,18.88,0,32-3.84,42.56-9.92h.64v18.24c0,23.36-24,42.24-56,42.24-53.44,0-91.52-36.16-91.52-91.2,0-50.24,34.88-93.44,96.96-93.44,27.84,0,50.88,18.24,50.88,40.96v21.44h-1.6Z"/>
      <path class="cls-8" d="m1317.65,310.48c-32,0-37.44-15.04-37.44-36.8v-58.88c0-24.96-8.96-36.16-26.24-36.16-23.68,0-29.44,12.48-29.44,37.44v94.4h-20.48c-29.12,0-40.32-12.16-40.32-36.8V73.68h19.52c25.28,0,39.68,12.16,39.68,34.88v45.44c8.96-14.08,23.68-24.64,51.52-24.64,35.52,0,66.56,27.52,66.56,75.2v105.92h-23.36Z"/>
    </g>
    <g id="symbol-stitch-2023-primary">
      <g id="back-left">
        <path class="cls-1" d="m213.98,0h-63.45C67.39,0,0,67.39,0,150.53s67.39,150.53,150.53,150.53h63.45c47.61,0,86.21-38.6,86.21-86.21V86.21C300.19,38.6,261.6,0,213.98,0Z"/>
      </g>
      <g id="front-right">
        <path class="cls-3" d="m228.62,78.95h-63.45c-47.61,0-86.21,38.6-86.21,86.21v128.63c0,47.61,38.6,86.21,86.21,86.21h63.45c83.13,0,150.53-67.39,150.53-150.53s-67.39-150.53-150.53-150.53Z"/>
      </g>
    </g>
  </g>
</svg>